<svg width="560" height="160" viewBox="0 0 560 160" fill="none" xmlns="http://www.w3.org/2000/svg">
<defs>
  <linearGradient id="g" x1="0" y1="0" x2="1" y2="1"><stop stop-color="#00c875"/><stop offset="1" stop-color="#00643d"/></linearGradient>
  <linearGradient id="m" x1="0" y1="0" x2="1" y2="1"><stop stop-color="#edf3f2"/><stop offset="0.45" stop-color="#758384"/><stop offset="1" stop-color="#d6dddd"/></linearGradient>
  <pattern id="diamond" width="16" height="16" patternUnits="userSpaceOnUse" patternTransform="rotate(35)"><rect width="16" height="16" fill="#334143"/><ellipse cx="8" cy="8" rx="2.5" ry="6" fill="#7e8b8c" opacity=".75"/></pattern>
</defs>
<path d="M18 15h112v84c0 24-13 39-56 54-43-15-56-30-56-54V15Z" fill="url(#g)" stroke="#0af096" stroke-width="4"/>
<path d="M43 48h57v18H82v58H61V66H43V48Z" fill="#fff"/>
<path d="M94 124 123 44h28l30 80h-25l-5-15h-31l-5 15H94Zm34-34h17l-8-28-9 28Z" fill="url(#diamond)" stroke="#c9d3d2" stroke-width="2"/>
<path d="M132 51 148 51 174 124" stroke="#f5f5f5" stroke-opacity=".6" stroke-width="5"/>
<text x="198" y="73" font-size="40" font-weight="800" font-family="Arial, Helvetica, sans-serif" fill="#F7FAF8" letter-spacing="1">TECNO ACERO</text>
<text x="201" y="112" font-size="23" font-weight="600" font-family="Arial, Helvetica, sans-serif" fill="#0FCE7A" letter-spacing="3">PANAMÁ, S.A.</text>
</svg>